<svg width="20" height="20" viewBox="0 0 20 20" fill="none" xmlns="http://www.w3.org/2000/svg">
<g clip-path="url(#clip0_8053_564)">
<path d="M9.99996 18.3334C14.6023 18.3334 18.3333 14.6025 18.3333 10.0001C18.3333 5.39771 14.6023 1.66675 9.99996 1.66675C5.39759 1.66675 1.66663 5.39771 1.66663 10.0001C1.66663 14.6025 5.39759 18.3334 9.99996 18.3334Z" stroke="#006D69" stroke-width="1.66667" stroke-linecap="round" stroke-linejoin="round"/>
<path d="M13.3333 6.66675H8.33329C7.89127 6.66675 7.46734 6.84234 7.15478 7.1549C6.84222 7.46746 6.66663 7.89139 6.66663 8.33341C6.66663 8.77544 6.84222 9.19937 7.15478 9.51193C7.46734 9.82449 7.89127 10.0001 8.33329 10.0001H11.6666C12.1087 10.0001 12.5326 10.1757 12.8451 10.4882C13.1577 10.8008 13.3333 11.2247 13.3333 11.6667C13.3333 12.1088 13.1577 12.5327 12.8451 12.8453C12.5326 13.1578 12.1087 13.3334 11.6666 13.3334H6.66663" stroke="#006D69" stroke-width="1.66667" stroke-linecap="round" stroke-linejoin="round"/>
<path d="M10 15V5" stroke="#006D69" stroke-width="1.66667" stroke-linecap="round" stroke-linejoin="round"/>
</g>
<defs>
<clipPath id="clip0_8053_564">
<rect width="20" height="20" fill="white"/>
</clipPath>
</defs>
</svg>
