<svg width="16" height="16" viewBox="0 0 16 16" fill="none" xmlns="http://www.w3.org/2000/svg">
<path d="M6.06733 15.7647V10.4447H4.418V8H6.06733V6.94667C6.06733 4.22333 7.29933 2.96133 9.97267 2.96133C10.24 2.96133 10.6093 2.98933 10.9513 3.03C11.2075 3.05636 11.4616 3.09979 11.712 3.16V5.37667C11.5672 5.36317 11.422 5.35516 11.2767 5.35267C11.1138 5.34844 10.9509 5.34644 10.788 5.34667C10.3167 5.34667 9.94867 5.41067 9.67133 5.55267C9.48489 5.64621 9.32816 5.78979 9.21867 5.96733C9.04667 6.24733 8.96933 6.63067 8.96933 7.13533V8H11.582L11.3247 9.402L11.1333 10.4447H8.96933V15.9413C12.9307 15.4627 16 12.09 16 8C16 3.582 12.418 0 8 0C3.582 0 0 3.582 0 8C0 11.752 2.58267 14.9 6.06733 15.7647Z" fill="white"/>
</svg>
