<svg width="16" height="16" viewBox="0 0 16 16" fill="none" xmlns="http://www.w3.org/2000/svg">
<path d="M10.6667 5.33325C11.7276 5.33325 12.745 5.75468 13.4952 6.50482C14.2453 7.25497 14.6667 8.27239 14.6667 9.33325V13.9999H12.0001V9.33325C12.0001 8.97963 11.8596 8.64049 11.6096 8.39044C11.3595 8.14039 11.0204 7.99992 10.6667 7.99992C10.3131 7.99992 9.97399 8.14039 9.72394 8.39044C9.47389 8.64049 9.33341 8.97963 9.33341 9.33325V13.9999H6.66675V9.33325C6.66675 8.27239 7.08818 7.25497 7.83832 6.50482C8.58847 5.75468 9.60588 5.33325 10.6667 5.33325Z" stroke="white" stroke-width="1.33333" stroke-linecap="round" stroke-linejoin="round"/>
<path d="M3.99992 6H1.33325V14H3.99992V6Z" stroke="white" stroke-width="1.33333" stroke-linecap="round" stroke-linejoin="round"/>
<path d="M2.66659 3.99992C3.40297 3.99992 3.99992 3.40297 3.99992 2.66659C3.99992 1.93021 3.40297 1.33325 2.66659 1.33325C1.93021 1.33325 1.33325 1.93021 1.33325 2.66659C1.33325 3.40297 1.93021 3.99992 2.66659 3.99992Z" stroke="white" stroke-width="1.33333" stroke-linecap="round" stroke-linejoin="round"/>
</svg>
