<svg width="16" height="16" viewBox="0 0 16 16" fill="none" xmlns="http://www.w3.org/2000/svg">
<path d="M7.36736 5.07722C7.41141 4.94211 7.49748 4.82462 7.61301 4.74187C7.72854 4.65912 7.86748 4.61545 8.00958 4.61724C8.15168 4.61903 8.28948 4.66617 8.4029 4.7518C8.51631 4.83742 8.5994 4.95705 8.64003 5.09322L9.13136 6.06122C9.17918 6.15533 9.24865 6.23673 9.33407 6.29874C9.41949 6.36074 9.51841 6.40158 9.6227 6.41789L10.712 6.58856C10.8523 6.58911 10.9888 6.63388 11.1022 6.71652C11.2155 6.79916 11.2999 6.91545 11.3433 7.04883C11.3868 7.18221 11.387 7.32589 11.344 7.45942C11.3011 7.59295 11.2171 7.70953 11.104 7.79256L10.3227 8.57122C10.2479 8.6457 10.1918 8.73688 10.1592 8.83725C10.1265 8.93762 10.1181 9.04431 10.1347 9.14856L10.3074 10.2239C10.3549 10.3587 10.3578 10.5051 10.3157 10.6417C10.2737 10.7783 10.1888 10.8977 10.0737 10.9824C9.95864 11.0671 9.81937 11.1126 9.67646 11.1122C9.53356 11.1117 9.39458 11.0653 9.28003 10.9799L8.30336 10.4799C8.20928 10.4317 8.10508 10.4065 7.99936 10.4065C7.89365 10.4065 7.78945 10.4317 7.69536 10.4799L6.7187 10.9799C6.60415 11.0646 6.46547 11.1104 6.323 11.1106C6.18052 11.1107 6.04174 11.0653 5.927 10.9808C5.81226 10.8963 5.7276 10.7773 5.68544 10.6412C5.64327 10.5051 5.64582 10.3591 5.6927 10.2246L5.8647 9.14922C5.88141 9.04488 5.87309 8.93805 5.8404 8.83755C5.80771 8.73706 5.7516 8.64577 5.6767 8.57122L4.90603 7.80322C4.78913 7.72224 4.7012 7.606 4.65507 7.47148C4.60894 7.33696 4.60703 7.19122 4.64963 7.05554C4.69222 6.91986 4.77709 6.80135 4.89182 6.71734C5.00656 6.63332 5.14516 6.5882 5.28736 6.58856L6.37603 6.41789C6.48031 6.40158 6.57924 6.36074 6.66466 6.29874C6.75007 6.23673 6.81955 6.15533 6.86736 6.06122L7.36736 5.07722Z" stroke="#AECC53" stroke-width="1.33333" stroke-linecap="round" stroke-linejoin="round"/>
<path d="M7.36736 5.07722C7.41141 4.94211 7.49748 4.82462 7.61301 4.74187C7.72854 4.65912 7.86748 4.61545 8.00958 4.61724C8.15168 4.61903 8.28948 4.66617 8.4029 4.7518C8.51631 4.83742 8.5994 4.95705 8.64003 5.09322L9.13136 6.06122C9.17918 6.15533 9.24865 6.23673 9.33407 6.29874C9.41949 6.36074 9.51841 6.40158 9.6227 6.41789L10.712 6.58856C10.8523 6.58911 10.9888 6.63388 11.1022 6.71652C11.2155 6.79916 11.2999 6.91545 11.3433 7.04883C11.3868 7.18221 11.387 7.32589 11.344 7.45942C11.3011 7.59295 11.2171 7.70953 11.104 7.79256L10.3227 8.57122C10.2479 8.6457 10.1918 8.73688 10.1592 8.83725C10.1265 8.93762 10.1181 9.04431 10.1347 9.14856L10.3074 10.2239C10.3549 10.3587 10.3578 10.5051 10.3157 10.6417C10.2737 10.7783 10.1888 10.8977 10.0737 10.9824C9.95864 11.0671 9.81937 11.1126 9.67646 11.1122C9.53356 11.1117 9.39458 11.0653 9.28003 10.9799L8.30336 10.4799C8.20928 10.4317 8.10508 10.4065 7.99936 10.4065C7.89365 10.4065 7.78945 10.4317 7.69536 10.4799L6.7187 10.9799C6.60415 11.0646 6.46547 11.1104 6.323 11.1106C6.18052 11.1107 6.04174 11.0653 5.927 10.9808C5.81226 10.8963 5.7276 10.7773 5.68544 10.6412C5.64327 10.5051 5.64582 10.3591 5.6927 10.2246L5.8647 9.14922C5.88141 9.04488 5.87309 8.93805 5.8404 8.83755C5.80771 8.73706 5.7516 8.64577 5.6767 8.57122L4.90603 7.80322C4.78913 7.72224 4.7012 7.606 4.65507 7.47148C4.60894 7.33696 4.60703 7.19122 4.64963 7.05554C4.69222 6.91986 4.77709 6.80135 4.89182 6.71734C5.00656 6.63332 5.14516 6.5882 5.28736 6.58856L6.37603 6.41789C6.48031 6.40158 6.57924 6.36074 6.66466 6.29874C6.75007 6.23673 6.81955 6.15533 6.86736 6.06122L7.36736 5.07722Z" stroke="black" stroke-opacity="0.5" stroke-width="1.33333" stroke-linecap="round" stroke-linejoin="round"/>
<path d="M8.00004 14.6666C11.6819 14.6666 14.6667 11.6818 14.6667 7.99992C14.6667 4.31802 11.6819 1.33325 8.00004 1.33325C4.31814 1.33325 1.33337 4.31802 1.33337 7.99992C1.33337 11.6818 4.31814 14.6666 8.00004 14.6666Z" stroke="#AECC53" stroke-width="1.33333" stroke-linecap="round" stroke-linejoin="round"/>
<path d="M8.00004 14.6666C11.6819 14.6666 14.6667 11.6818 14.6667 7.99992C14.6667 4.31802 11.6819 1.33325 8.00004 1.33325C4.31814 1.33325 1.33337 4.31802 1.33337 7.99992C1.33337 11.6818 4.31814 14.6666 8.00004 14.6666Z" stroke="black" stroke-opacity="0.5" stroke-width="1.33333" stroke-linecap="round" stroke-linejoin="round"/>
</svg>
