<svg width="16" height="16" viewBox="0 0 16 16" fill="none" xmlns="http://www.w3.org/2000/svg">
<g clip-path="url(#clip0_8121_160)">
<path d="M11.6478 9.58803C11.4498 9.48869 10.4758 9.01003 10.2945 8.94336C10.1125 8.87736 9.98051 8.84469 9.84784 9.04336C9.71651 9.24136 9.33651 9.68736 9.22118 9.81936C9.10584 9.95203 8.98984 9.96803 8.79184 9.86936C8.59384 9.76936 7.95518 9.56069 7.19851 8.88603C6.60984 8.36069 6.21184 7.71203 6.09651 7.51336C5.98118 7.31536 6.08451 7.20803 6.18318 7.10936C6.27251 7.02069 6.38184 6.87803 6.48051 6.76269C6.57984 6.64669 6.61251 6.56403 6.67918 6.43136C6.74518 6.29936 6.71251 6.18403 6.66251 6.08469C6.61251 5.98536 6.21651 5.01003 6.05184 4.61336C5.89051 4.22736 5.72718 4.28003 5.60584 4.27336C5.49051 4.26803 5.35851 4.26669 5.22584 4.26669C5.09384 4.26669 4.87918 4.31603 4.69784 4.51469C4.51651 4.71269 4.00451 5.19203 4.00451 6.16736C4.00451 7.14203 4.71451 8.08403 4.81318 8.21669C4.91251 8.34869 6.21051 10.35 8.19784 11.208C8.67051 11.412 9.03918 11.534 9.32718 11.6247C9.80184 11.776 10.2338 11.7547 10.5745 11.7034C10.9552 11.6467 11.7465 11.224 11.9118 10.7614C12.0772 10.2987 12.0772 9.90203 12.0272 9.81936C11.9778 9.73669 11.8465 9.68736 11.6478 9.58803ZM8.03318 14.5234H8.03051C6.85035 14.5235 5.6919 14.2062 4.67651 13.6047L4.43584 13.462L1.94184 14.1167L2.60718 11.6847L2.45051 11.4354C1.7908 10.3849 1.4418 9.16915 1.44384 7.92869C1.44451 4.29536 4.40118 1.33936 8.03584 1.33936C9.79584 1.33936 11.4505 2.02603 12.6945 3.27136C13.3083 3.88244 13.7948 4.60918 14.1258 5.40952C14.4569 6.20987 14.6259 7.06792 14.6232 7.93403C14.6212 11.5674 11.6652 14.5234 8.03318 14.5234ZM13.6418 2.32536C12.9073 1.58598 12.0333 0.999719 11.0706 0.600561C10.1078 0.201403 9.0754 -0.0027175 8.03318 2.73184e-05C3.66318 2.73184e-05 0.106508 3.55669 0.104508 7.92803C0.104508 9.32536 0.469175 10.6894 1.16318 11.8914L0.0378418 16L4.24118 14.8974C5.40357 15.5306 6.70613 15.8625 8.02984 15.8627H8.03318C12.4025 15.8627 15.9598 12.306 15.9618 7.93403C15.9651 6.89221 15.7617 5.86009 15.3635 4.89738C14.9652 3.93467 14.3801 3.06047 13.6418 2.32536Z" fill="white"/>
</g>
<defs>
<clipPath id="clip0_8121_160">
<rect width="16" height="16" fill="white"/>
</clipPath>
</defs>
</svg>
