<svg width="195" height="66" viewBox="0 0 195 66" fill="none" xmlns="http://www.w3.org/2000/svg">
<path d="M4.75947 51.1206V32.2303C4.75947 32.0136 4.70096 31.8021 4.5899 31.6161L2.59711 28.2703L4.5899 24.9254C4.70096 24.7394 4.75947 24.5272 4.75947 24.3112V5.4202C4.75947 4.07686 5.85224 2.98356 7.19612 2.98356H17.2183V0.583618H7.19612C4.52906 0.583618 2.35935 2.75331 2.35935 5.42037V23.9805L0.16929 27.6563C-0.05643 28.035 -0.05643 28.5068 0.16929 28.8848L2.35935 32.5613V51.1208C2.35935 53.7878 4.52906 55.9583 7.19612 55.9583H17.2183V53.5576H7.19612C5.85206 53.5576 4.75947 52.4647 4.75947 51.1206Z" fill="#ACCA53"/>
<path d="M62.0019 23.9803V5.41999C62.0019 2.75293 59.8322 0.583191 57.1652 0.583191H47.143V2.98313H57.1652C58.5085 2.98313 59.6018 4.07665 59.6018 5.41981V24.3108C59.6018 24.5268 59.6603 24.739 59.7707 24.9252L61.7642 28.2701L59.7707 31.6159C59.6605 31.8011 59.6018 32.0134 59.6018 32.2301V51.1204C59.6018 52.4645 58.5083 53.557 57.1652 53.557H47.143V55.957H57.1652C59.8322 55.957 62.0019 53.7873 62.0019 51.1202V32.5607L64.1927 28.885C64.4177 28.5063 64.4177 28.0345 64.1927 27.6557L62.0019 23.98V23.9803Z" fill="#ACCA53"/>
<path d="M50.2571 37.5017C51.8179 37.2369 53.0794 35.9748 53.2475 34.3233C53.45 32.3402 52.0055 30.5688 50.0224 30.3663C48.0394 30.1646 46.2673 31.6083 46.0655 33.5921C45.9478 34.7463 46.3985 35.8182 47.1784 36.5621C44.9052 42.0445 39.7655 45.9259 33.7871 46.522V31.1981C37.8859 30.7009 41.5437 28.3331 43.7134 24.8742C45.4346 24.8382 46.9354 23.5796 47.2047 21.8194C47.5055 19.8491 46.1524 18.0072 44.1814 17.7057C42.2112 17.4042 40.3692 18.758 40.0677 20.7283C39.9117 21.7528 40.2087 22.736 40.8005 23.4927C39.1909 25.868 36.6463 27.5202 33.7871 27.9761V12.9987C34.9737 12.4077 35.7963 11.1942 35.7963 9.77884C35.7963 7.78534 34.1801 6.16913 32.1866 6.16913C30.1938 6.16913 28.5769 7.78534 28.5769 9.77884C28.5769 11.1942 29.4004 12.4068 30.587 12.9987V27.9777C27.7219 27.5247 25.172 25.8717 23.561 23.4927C24.1526 22.736 24.4498 21.7526 24.2938 20.7283C23.9923 18.758 22.1504 17.4042 20.1801 17.7057C18.2091 18.0072 16.856 19.8491 17.1568 21.8194C17.4261 23.5796 18.9267 24.8382 20.6481 24.8742C22.8201 28.337 26.4815 30.7054 30.5871 31.1997V46.5237C24.6029 45.932 19.4579 42.0483 17.1831 36.5621C17.963 35.8182 18.4139 34.7463 18.296 33.5921C18.0942 31.6083 16.3219 30.1646 14.3391 30.3663C12.356 30.5688 10.9115 32.3404 11.114 34.3233C11.2819 35.9748 12.5436 37.2371 14.1043 37.5017C16.802 44.3161 23.1861 49.1283 30.5871 49.7379V65.3131H33.7874V49.7372C41.1832 49.1231 47.5604 44.3125 50.2574 37.5017" fill="white"/>
<path d="M87.8658 14.2576C91.585 14.2576 94.1246 11.6581 94.6841 8.81859V6.37884H87.1255V8.51854H91.9248C91.5049 10.4985 90.1256 11.7374 87.9656 11.7374C85.366 11.7374 83.6065 9.97798 83.6065 7.13848C83.6065 4.35892 85.3457 2.57924 87.8455 2.57924C89.3253 2.57924 90.4848 3.1988 91.1253 4.37924H94.3442C93.4449 1.57952 90.9654 0 87.8455 0C83.8059 0 80.7272 2.9596 80.7272 7.13848C80.7272 11.3183 83.8059 14.2574 87.8656 14.2574" fill="white"/>
<path d="M99.5673 8.61856C99.5673 6.4789 100.567 5.83902 102.227 5.83902H102.967V2.89978C101.427 2.89978 100.267 3.6392 99.5673 4.77932V3.05961H96.7675V14.1379H99.5673V8.61856Z" fill="white"/>
<path d="M109.608 5.17923C111.047 5.17923 112.207 6.09956 112.247 7.559H106.988C107.208 6.03872 108.267 5.17923 109.608 5.17923ZM109.687 14.318C112.427 14.318 114.267 12.698 114.867 10.6581H111.847C111.487 11.3984 110.827 11.9984 109.628 11.9984C108.228 11.9984 107.108 11.0782 106.968 9.43854H115.067C115.126 9.07854 115.146 8.71854 115.146 8.35854C115.146 5.05932 112.887 2.8797 109.687 2.8797C106.408 2.8797 104.128 5.09892 104.128 8.59848C104.128 12.0784 106.468 14.318 109.687 14.318Z" fill="white"/>
<path d="M121.948 5.17923C123.388 5.17923 124.548 6.09956 124.588 7.559H119.329C119.548 6.03872 120.608 5.17923 121.948 5.17923ZM122.028 14.318C124.768 14.318 126.607 12.698 127.207 10.6581H124.188C123.828 11.3984 123.168 11.9984 121.969 11.9984C120.568 11.9984 119.449 11.0782 119.308 9.43854H127.408C127.467 9.07854 127.487 8.71854 127.487 8.35854C127.487 5.05932 125.227 2.8797 122.028 2.8797C118.749 2.8797 116.469 5.09892 116.469 8.59848C116.469 12.0784 118.809 14.318 122.028 14.318Z" fill="white"/>
<path d="M132.329 8.01884C132.329 6.23918 133.309 5.27907 134.829 5.27907C136.309 5.27907 137.289 6.239 137.289 8.01884V14.1381H140.088V7.63867C140.088 4.57939 138.248 2.89948 135.669 2.89948C134.249 2.89948 133.049 3.49941 132.329 4.43919V3.05913H129.53V14.1381H132.329V8.01884Z" fill="white"/>
<path d="M84.0063 29.5415C84.0063 28.4023 84.826 27.8623 85.9263 27.9021C87.1264 27.9215 87.8658 28.6415 87.9257 29.5619H91.0052C90.8252 27.0419 88.8655 25.5824 86.0057 25.5824C83.1264 25.5824 81.0865 27.102 81.0865 29.622C81.0671 34.6814 88.2654 32.8613 88.2654 35.8808C88.2654 36.8805 87.4855 37.581 86.1663 37.581C84.8658 37.581 84.1263 36.8407 84.0468 35.7211H81.0467C81.0865 38.3604 83.3268 39.8805 86.2262 39.8805C89.4054 39.8805 91.165 37.9005 91.165 35.7008C91.165 30.7815 84.0063 32.3414 84.0063 29.5415Z" fill="white"/>
<path d="M98.5067 37.4804C97.0068 37.4804 95.7271 36.4004 95.7271 34.2006C95.7271 31.9814 97.0674 30.9208 98.5463 30.9208C100.026 30.9208 101.406 31.9814 101.406 34.2006C101.406 36.4004 99.9863 37.4804 98.5065 37.4804M98.5868 28.4818C95.3873 28.4818 92.8877 30.701 92.8877 34.2006C92.8877 37.6805 95.3072 39.9201 98.5067 39.9201C101.726 39.9201 104.285 37.6805 104.285 34.2006C104.285 30.701 101.786 28.4818 98.5868 28.4818Z" fill="white"/>
<path d="M109.488 39.7401V30.9613H111.428V28.6618H109.488V28.2021C109.488 26.9624 109.948 26.5221 111.307 26.5619V24.2025C108.188 24.1229 106.648 25.3822 106.648 28.1025V28.662H105.388V30.9615H106.648V39.7402L109.488 39.7401Z" fill="white"/>
<path d="M118.988 37.3803H117.688C116.808 37.3803 116.508 37.06 116.508 36.3204V30.9609H118.988V28.6614H116.508V25.9216H113.688V28.6614H112.369V30.9609H113.688V36.3003C113.688 38.8404 115.108 39.7397 117.228 39.7397H118.988V37.3803Z" fill="white"/>
<path d="M136.366 28.6616H133.687L131.727 37.0804L129.647 28.6616H126.688L124.568 37.0998L122.608 28.6616H119.769L123.028 39.7399H126.068L128.088 32.0006L130.107 39.7399H133.127L136.366 28.6616Z" fill="white"/>
<path d="M142.949 37.4604C141.449 37.4604 140.03 36.2604 140.03 34.1612C140.03 32.0611 141.449 30.9413 142.949 30.9413C144.489 30.9413 145.889 32.1009 145.889 34.2008C145.889 36.3008 144.489 37.4604 142.949 37.4604ZM145.889 38.1203V39.7396H148.709V28.6613H145.889V30.2415C145.229 29.3212 144.009 28.4813 142.23 28.4813C139.41 28.4813 137.171 30.7012 137.171 34.161C137.171 37.6201 139.41 39.9196 142.209 39.9196C143.969 39.9196 145.229 39.0804 145.889 38.1203Z" fill="white"/>
<path d="M157.65 28.5019C156.111 28.5019 154.951 29.2423 154.251 30.3815V28.6618H151.452V39.74H154.251V34.2209C154.251 32.0811 155.251 31.4413 156.91 31.4413H157.651V28.5021L157.65 28.5019Z" fill="white"/>
<path d="M161.671 33.1609C161.891 31.6413 162.951 30.7811 164.291 30.7811C165.73 30.7811 166.891 31.7014 166.93 33.1609H161.671ZM164.371 28.4816C161.092 28.4816 158.812 30.7016 158.812 34.2011C158.812 37.6803 161.152 39.9199 164.371 39.9199C167.11 39.9199 168.95 38.3006 169.55 36.2607H166.531C166.171 37.0001 165.511 37.6002 164.311 37.6002C162.911 37.6002 161.791 36.6808 161.651 35.0405H169.751C169.81 34.6812 169.83 34.3204 169.83 33.9612C169.83 30.6612 167.57 28.4816 164.371 28.4816Z" fill="white"/>
<path d="M81.4067 65.3422H84.2064V59.4434H88.6652V57.2235H84.2064V53.6438H90.0256V51.3848H81.4067V65.3422Z" fill="white"/>
<path d="M96.9269 63.0827C95.427 63.0827 94.1473 62.0027 94.1473 59.8029C94.1473 57.5837 95.4876 56.5231 96.9665 56.5231C98.4463 56.5231 99.8261 57.5837 99.8261 59.8029C99.8261 62.0027 98.4067 63.0827 96.9269 63.0827ZM97.007 54.0841C93.8075 54.0841 91.3078 56.3033 91.3078 59.8029C91.3078 63.2828 93.7274 65.5224 96.9269 65.5224C100.147 65.5224 102.706 63.2828 102.706 59.8029C102.706 56.3033 100.207 54.0841 97.007 54.0841Z" fill="white"/>
<path d="M112.407 60.3629C112.407 62.1427 111.447 63.1026 109.927 63.1026C108.447 63.1026 107.468 62.1427 107.468 60.3629V54.2639H104.668V60.7626C104.668 63.8025 106.528 65.4824 109.108 65.4824C110.488 65.4824 111.708 64.8825 112.408 63.9427V65.3422H115.227V54.2639H112.408L112.407 60.3629Z" fill="white"/>
<path d="M124.128 54.1041C122.709 54.1041 121.509 54.7041 120.789 55.6438V54.2638H117.99V65.342H120.789V59.2235C120.789 57.4429 121.769 56.4837 123.289 56.4837C124.768 56.4837 125.748 57.4429 125.748 59.2235V65.342H128.548V58.8434C128.548 55.7834 126.708 54.1041 124.128 54.1041Z" fill="white"/>
<path d="M136.27 63.0627C134.77 63.0627 133.35 61.8626 133.35 59.7634C133.35 57.6634 134.77 56.5436 136.27 56.5436C137.809 56.5436 139.21 57.7032 139.21 59.803C139.21 61.9031 137.809 63.0627 136.27 63.0627ZM139.189 55.804C138.43 54.7638 137.029 54.0836 135.57 54.0836C132.731 54.0836 130.491 56.3035 130.491 59.7633C130.491 63.2223 132.73 65.5218 135.55 65.5218C137.29 65.5218 138.529 64.7223 139.189 63.7024V65.3418H142.029V50.5444H139.189V55.804Z" fill="white"/>
<path d="M149.831 63.0627C148.331 63.0627 146.911 61.8626 146.911 59.7634C146.911 57.6634 148.331 56.5436 149.831 56.5436C151.37 56.5436 152.771 57.7032 152.771 59.803C152.771 61.9031 151.37 63.0627 149.831 63.0627ZM152.771 55.8438C152.111 54.9234 150.89 54.0836 149.111 54.0836C146.291 54.0836 144.052 56.3035 144.052 59.7633C144.052 63.2223 146.292 65.5218 149.091 65.5218C150.851 65.5218 152.111 64.6827 152.771 63.7226V65.3418H155.59V54.2636H152.771L152.771 55.8438Z" fill="white"/>
<path d="M161.592 51.5242H158.773V54.2639H157.453V56.5635H158.773V61.9028C158.773 64.4422 160.192 65.3422 162.312 65.3422H164.072V62.9828H162.772C161.892 62.9828 161.592 62.6626 161.592 61.9229V56.5635H164.072V54.2639H161.592V51.5242Z" fill="white"/>
<path d="M167.513 49.6647C166.513 49.6647 165.793 50.3848 165.793 51.3042C165.793 52.2245 166.513 52.9445 167.513 52.9445C168.492 52.9445 169.232 52.2245 169.232 51.3042C169.232 50.3848 168.492 49.6647 167.513 49.6647Z" fill="white"/>
<path d="M168.893 54.2639H166.093V65.3422H168.893V54.2639Z" fill="white"/>
<path d="M176.573 63.0827C175.073 63.0827 173.793 62.0027 173.793 59.8029C173.793 57.5837 175.133 56.5231 176.612 56.5231C178.092 56.5231 179.472 57.5837 179.472 59.8029C179.472 62.0027 178.053 63.0827 176.573 63.0827ZM176.653 54.0841C173.453 54.0841 170.954 56.3033 170.954 59.8029C170.954 63.2828 173.373 65.5224 176.573 65.5224C179.792 65.5224 182.351 63.2828 182.351 59.8029C182.351 56.3033 179.853 54.0841 176.653 54.0841" fill="white"/>
<path d="M190.554 54.1041C189.134 54.1041 187.934 54.7041 187.214 55.6438V54.2638H184.414V65.342H187.214V59.2235C187.214 57.4429 188.194 56.4837 189.714 56.4837C191.194 56.4837 192.174 57.4429 192.174 59.2235V65.342H194.973V58.8434C194.973 55.7834 193.133 54.1041 190.554 54.1041Z" fill="white"/>
</svg>
