<svg width="237" height="149" viewBox="0 0 237 149" fill="none" xmlns="http://www.w3.org/2000/svg">
<path d="M206.995 46.1837C217.412 75.8536 210.163 108.853 186.656 130.442C179.416 137.092 171.379 142.235 163.025 145.937" stroke="#AECC53" stroke-width="3.7566" stroke-linecap="round" stroke-linejoin="round"/>
<path d="M203.037 47.8487C202.237 45.6496 203.372 43.2182 205.57 42.4186C207.769 41.6183 210.2 42.7523 211 44.9514C211.8 47.1495 210.666 49.5819 208.467 50.3814C206.269 51.1817 203.837 50.0477 203.037 47.8487Z" fill="#AECC53"/>
<path d="M173.53 141.824C180.557 135.102 191.037 133.305 200.177 136.034C203.415 137.048 206.618 138.672 209.209 141.054C206.725 143.544 203.592 145.306 200.402 146.457C191.391 149.58 180.839 148.236 173.53 141.824Z" fill="#AECC53"/>
<path d="M193.631 124.635C197.799 115.49 207.08 109.681 216.854 108.462C220.329 108.08 224.014 108.263 227.449 109.408C226.032 112.738 223.723 115.621 221.134 117.968C213.744 124.478 203.24 127.576 193.631 124.635Z" fill="#AECC53"/>
<path d="M209.563 96.4161C211.107 87.3538 218.203 80.1351 226.87 77.5746C229.974 76.6895 233.388 76.352 236.692 76.9408C236.194 80.2588 234.781 83.3879 232.95 86.0443C227.753 93.4371 218.642 97.8523 209.563 96.4161Z" fill="#AECC53"/>
<path d="M213.049 70.8739C211.549 63.7151 214.844 56.4597 221.303 53.1642C223.719 51.9845 226.083 51.3342 229.053 51.3604C229.661 54.266 229.486 56.7154 228.801 59.3143C226.833 66.2938 220.363 70.9437 213.048 70.8741" fill="#AECC53"/>
<path d="M29.6979 46.1837C19.2804 75.8536 26.5292 108.853 50.0365 130.442C57.2762 137.092 65.3132 142.235 73.6674 145.937" stroke="#AECC53" stroke-width="3.7566" stroke-linecap="round" stroke-linejoin="round"/>
<path d="M25.6921 44.9512C26.4924 42.7521 28.9238 41.6181 31.1222 42.4184C33.3212 43.218 34.4552 45.6501 33.6549 47.8485C32.8554 50.0475 30.4239 51.1815 28.2249 50.3813C26.0265 49.5817 24.8918 47.1503 25.6921 44.9512Z" fill="#AECC53"/>
<path d="M63.1624 141.824C55.8522 148.236 45.3033 149.58 36.2907 146.458C33.0995 145.306 29.9697 143.545 27.4835 141.054C30.0733 138.672 33.2781 137.047 36.5157 136.034C45.6538 133.304 56.1372 135.102 63.1624 141.824Z" fill="#AECC53"/>
<path d="M43.0614 124.635C33.4509 127.576 22.9502 124.478 15.5581 117.969C12.9692 115.619 10.6621 112.739 9.24393 109.409C12.676 108.262 16.3644 108.08 19.8384 108.462C29.6116 109.68 38.8935 115.491 43.0614 124.635Z" fill="#AECC53"/>
<path d="M27.1298 96.4161C18.0495 97.8516 8.94078 93.4378 3.74256 86.0443C1.91106 83.3863 0.49878 80.2604 0 76.9408C3.303 76.3513 6.7192 76.6896 9.82204 77.5746C18.489 80.1344 25.5863 87.3546 27.1298 96.4161Z" fill="#AECC53"/>
<path d="M23.6439 70.8739C16.329 70.9445 9.85965 66.2929 7.89081 59.3141C7.20681 56.7139 7.03205 54.2682 7.63883 51.3603C10.6065 51.3326 12.9751 51.9844 15.3893 53.1641C21.8491 56.4595 25.1433 63.7144 23.6439 70.8739Z" fill="#AECC53"/>
<path d="M73.1124 72.882C73.1124 47.9002 93.3639 27.648 118.346 27.648C143.329 27.648 163.581 47.9002 163.581 72.882H191.228C191.228 32.6309 158.598 0 118.346 0C78.0946 0 45.4644 32.6309 45.4644 72.882H73.1124Z" fill="#006D68"/>
<path d="M191.228 72.882H163.582C163.582 72.882 163.542 75.0592 163.466 76.1331C161.8 99.5976 142.236 118.117 118.346 118.117C94.3616 118.117 74.7364 99.4492 73.2078 75.8505C73.1441 74.8695 73.1119 72.882 73.1119 72.882H45.4646C45.4646 72.882 45.4841 74.8522 45.5231 75.8302C47.0697 114.715 79.081 145.764 118.346 145.764C157.404 145.764 189.284 115.042 191.142 76.446C191.199 75.2655 191.228 72.882 191.228 72.882" fill="white"/>
<path d="M118.534 107.402V64.9347L82.4638 41.9127L82.6521 84.3799L118.534 107.402Z" fill="#CEE098"/>
<path d="M118.534 107.402V64.9347L154.417 41.9127V84.3799L118.534 107.402Z" fill="#849E2A"/>
<path d="M119.495 65.4597V105.645L153.456 83.855V43.67L119.495 65.4597ZM118.534 108.363C118.376 108.363 118.217 108.324 118.074 108.245C117.765 108.076 117.573 107.753 117.573 107.402V64.9348C117.573 64.6077 117.741 64.3034 118.016 64.1262L153.898 41.1042C154.194 40.9145 154.57 40.901 154.878 41.0697C155.186 41.2385 155.377 41.5616 155.377 41.9126V84.3798C155.377 84.7069 155.211 85.0113 154.935 85.1884L119.053 108.21C118.896 108.312 118.715 108.363 118.534 108.363Z" fill="white"/>
<path d="M154.417 41.9126L118.534 64.9346L82.652 41.9126L118.534 18.8906L154.417 41.9126Z" fill="#ACCA53"/>
<path d="M84.4311 41.9126L118.534 63.793L152.639 41.9126L118.534 20.0322L84.4311 41.9126ZM118.534 65.8954C118.354 65.8954 118.174 65.8445 118.016 65.7432L82.134 42.7212C81.858 42.5442 81.6923 42.2397 81.6923 41.9126C81.6923 41.5855 81.858 41.2812 82.134 41.104L118.016 18.082C118.333 17.8788 118.736 17.8788 119.053 18.082L154.936 41.104C155.212 41.281 155.378 41.5855 155.378 41.9126C155.378 42.2397 155.212 42.544 154.936 42.7212L119.053 65.7432C118.895 65.8443 118.715 65.8954 118.535 65.8954" fill="white"/>
<path d="M100.406 54.3841C100.089 54.3841 99.7801 54.2281 99.5963 53.9424C99.3098 53.4955 99.4395 52.9015 99.8858 52.6149L135.769 29.5929C136.214 29.3056 136.809 29.4369 137.096 29.8833C137.382 30.3295 137.252 30.9235 136.806 31.21L100.923 54.232C100.763 54.3355 100.583 54.3843 100.406 54.3843" fill="white"/>
<path d="M118.535 87.3997C118.219 87.3997 117.91 87.2436 117.726 86.958C117.439 86.5118 117.569 85.917 118.015 85.6305L153.253 63.0225C153.699 62.7345 154.293 62.8657 154.581 63.3119C154.867 63.7581 154.738 64.3529 154.291 64.6387L119.053 87.2474C118.893 87.3509 118.712 87.3997 118.535 87.3997Z" fill="#003834"/>
<path d="M136.953 54.0774C136.782 54.0774 136.608 54.031 136.452 53.9349L99.9964 31.5128C99.545 31.2352 99.4031 30.6436 99.6814 30.1912C99.9581 29.7398 100.55 29.5987 101.002 29.8762L137.457 52.2983C137.909 52.5758 138.051 53.1675 137.772 53.6199C137.592 53.9145 137.276 54.0774 136.953 54.0774Z" fill="white"/>
<path d="M84.4311 41.9126L118.534 63.793L152.639 41.9126L118.534 20.0322L84.4311 41.9126ZM118.534 65.8954C118.354 65.8954 118.174 65.8445 118.016 65.7432L82.134 42.7212C81.858 42.5442 81.6923 42.2397 81.6923 41.9126C81.6923 41.5855 81.858 41.2812 82.134 41.104L118.016 18.082C118.333 17.8788 118.736 17.8788 119.053 18.082L154.936 41.104C155.212 41.281 155.378 41.5855 155.378 41.9126C155.378 42.2397 155.212 42.544 154.936 42.7212L119.053 65.7432C118.895 65.8443 118.715 65.8954 118.535 65.8954" fill="white"/>
<path d="M137.69 95.9848C137.159 95.9848 136.729 95.555 136.729 95.024V52.8658C136.729 52.3355 137.159 51.9059 137.69 51.9059C138.221 51.9059 138.651 52.3357 138.651 52.8658V95.024C138.651 95.555 138.221 95.9848 137.69 95.9848Z" fill="#003834"/>
<path d="M119.495 65.4597V105.645L153.456 83.855V43.67L119.495 65.4597ZM118.534 108.363C118.376 108.363 118.217 108.324 118.074 108.245C117.765 108.076 117.573 107.753 117.573 107.402V64.9348C117.573 64.6077 117.741 64.3034 118.016 64.1262L153.898 41.1042C154.194 40.9145 154.57 40.901 154.878 41.0697C155.186 41.2385 155.377 41.5616 155.377 41.9126V84.3798C155.377 84.7069 155.211 85.0113 154.935 85.1884L119.053 108.21C118.896 108.312 118.715 108.363 118.534 108.363Z" fill="white"/>
<path d="M100.405 95.9848C99.8737 95.9848 99.4439 95.5551 99.4439 95.0241V53.4238C99.4439 52.8928 99.8737 52.4631 100.405 52.4631C100.936 52.4631 101.366 52.893 101.366 53.4238V95.0241C101.366 95.5551 100.936 95.9848 100.405 95.9848Z" fill="#849E2A"/>
<path d="M118.533 87.1287C118.357 87.1287 118.178 87.0799 118.017 86.978L82.602 64.3745C82.1543 64.0887 82.0239 63.4947 82.3088 63.0477C82.5946 62.6015 83.187 62.4696 83.6356 62.7545L119.051 85.358C119.498 85.6437 119.629 86.2378 119.344 86.6848C119.161 86.9721 118.85 87.1289 118.533 87.1289" fill="#849E2A"/>
<path d="M83.6113 83.8534L117.574 105.644V65.4612L83.432 43.6707L83.6113 83.8534ZM118.534 108.363C118.354 108.363 118.173 108.312 118.015 108.21L82.1339 85.1885C81.8601 85.013 81.6936 84.71 81.6922 84.3844L81.5039 41.9172C81.5015 41.5655 81.6929 41.2407 82.0003 41.0712C82.3087 40.9016 82.6836 40.9137 82.9806 41.1027L119.051 64.1247C119.328 64.3016 119.495 64.6069 119.495 64.9347V107.402C119.495 107.753 119.304 108.076 118.995 108.245C118.852 108.323 118.693 108.363 118.534 108.363Z" fill="white"/>
</svg>
