<svg width="365" height="439" viewBox="0 0 365 439" fill="none" xmlns="http://www.w3.org/2000/svg">
<g opacity="0.5">
<path d="M589.581 434.813C574.281 396.613 552.06 360.933 534.06 339.283C492.8 289.663 409.871 240.853 343.261 258.793C258.201 281.703 236.05 367.643 255.07 446.333C269.37 505.473 315.811 544.203 371.341 569.103C420.291 591.043 476.44 605.853 530.21 597.753C556.61 593.773 584.69 583.323 597.55 559.923C615.76 526.763 607.321 479.093 589.591 434.813H589.581Z" stroke="#ADCB53" stroke-width="2" stroke-linecap="round" stroke-linejoin="round"/>
<path d="M657.53 435.493C635.89 381.473 604.47 331.023 579.01 300.413C520.67 230.243 403.38 161.223 309.19 186.593C188.91 218.993 157.58 340.523 184.48 451.803C204.7 535.433 270.38 590.213 348.9 625.413C418.12 656.443 497.52 677.383 573.56 665.933C610.89 660.313 650.61 645.523 668.78 612.433C694.54 565.543 682.6 498.133 657.52 435.503L657.53 435.493Z" stroke="#ADCB53" stroke-width="2" stroke-linecap="round" stroke-linejoin="round"/>
<path d="M692.681 434.203C667.841 372.183 631.76 314.263 602.53 279.113C535.55 198.553 400.89 119.303 292.75 148.433C154.65 185.623 118.68 325.163 149.57 452.923C172.78 548.933 248.19 611.833 338.34 652.243C417.81 687.863 508.97 711.913 596.28 698.763C639.14 692.303 684.74 675.323 705.61 637.343C735.18 583.513 721.481 506.103 692.681 434.213V434.203Z" stroke="#ADCB53" stroke-width="2" stroke-linecap="round" stroke-linejoin="round"/>
<path d="M298.33 689.573C379.52 735.683 486.7 769.163 580.71 758.493C619.07 754.143 676.2 734.363 701.12 700.313C730.93 659.583 744.99 611.823 744.03 569.183C740.03 391.183 649.911 199.503 506.931 127.763C407.811 78.0329 284.601 73.1229 195.991 147.453C129.151 203.523 85.9104 288.583 86.0604 375.783C86.2804 508.163 183.22 624.193 298.34 689.573H298.33Z" stroke="#ADCB53" stroke-width="2" stroke-linecap="round" stroke-linejoin="round"/>
<path d="M284.95 716.503C375.05 767.673 494 804.833 598.32 792.993C640.89 788.163 700.9 769.673 723.07 728.423C830.77 528.083 715.741 193.013 516.441 93.023C406.441 37.833 269.711 32.3829 171.371 114.873C97.1905 177.103 49.2105 271.503 49.3705 368.273C49.6205 515.183 157.19 643.953 284.95 716.513V716.503Z" stroke="#ADCB53" stroke-width="2" stroke-linecap="round" stroke-linejoin="round"/>
<path d="M267.31 752.013C369.16 809.853 503.62 851.853 621.55 838.473C669.67 833.013 737.5 812.103 762.56 765.483C884.3 539.013 754.27 160.263 528.98 47.223C404.64 -15.167 250.08 -21.327 138.91 71.923C55.0604 142.263 0.820447 248.973 1.00045 358.363C1.28045 524.433 122.88 669.993 267.3 752.013H267.31Z" stroke="#ADCB53" stroke-width="2" stroke-linecap="round" stroke-linejoin="round"/>
</g>
</svg>
