<svg width="110" height="37" viewBox="0 0 110 37" fill="none" xmlns="http://www.w3.org/2000/svg">
<path d="M9.63457 31.4139H4.01807C3.30364 31.4139 2.61845 31.1301 2.11327 30.6249C1.60809 30.1197 1.3243 29.4345 1.3243 28.7201V18.3042L0.0941546 16.239C0.0325157 16.135 0 16.0164 0 15.8956C0 15.7747 0.0325157 15.6561 0.0941546 15.5521L1.3243 13.4869V3.05752C1.32134 2.70188 1.38881 2.34918 1.52286 2.01976C1.65691 1.69034 1.85489 1.39073 2.10533 1.13821C2.35576 0.88569 2.65369 0.68526 2.98198 0.548484C3.31028 0.411708 3.66242 0.341296 4.01807 0.341309H9.64356V1.68819H4.01807C3.83929 1.68817 3.66231 1.72373 3.49742 1.79281C3.33253 1.8619 3.18304 1.96312 3.05767 2.09058C2.9323 2.21804 2.83356 2.36917 2.7672 2.53519C2.70085 2.7012 2.66821 2.87876 2.67119 3.05752V13.6575C2.67029 13.7781 2.63613 13.8962 2.57243 13.9987L1.45452 15.8798L2.57243 17.7565C2.63613 17.859 2.67029 17.977 2.67119 18.0977V28.7022C2.67119 29.0594 2.81308 29.402 3.06567 29.6546C3.31826 29.9071 3.66085 30.049 4.01807 30.049H9.64356L9.63457 31.4139Z" fill="#AECC53"/>
<path d="M32.051 31.4139H26.4256V30.067H32.051C32.4082 30.067 32.7508 29.9251 33.0034 29.6725C33.256 29.4199 33.3979 29.0773 33.3979 28.7201V18.1112C33.3994 17.9912 33.4319 17.8737 33.4922 17.77L34.6146 15.8933L33.4922 14.0122C33.4319 13.9084 33.3994 13.7909 33.3979 13.6709V3.05752C33.4009 2.87876 33.3683 2.7012 33.3019 2.53519C33.2356 2.36917 33.1368 2.21804 33.0115 2.09058C32.8861 1.96312 32.7366 1.8619 32.5717 1.79281C32.4068 1.72373 32.2298 1.68817 32.051 1.68819H26.4256V0.341309H32.051C32.4067 0.341296 32.7588 0.411708 33.0871 0.548484C33.4154 0.68526 33.7134 0.88569 33.9638 1.13821C34.2142 1.39073 34.4122 1.69034 34.5462 2.01976C34.6803 2.34918 34.7477 2.70188 34.7448 3.05752V13.4689L35.975 15.5341C36.0366 15.6381 36.0691 15.7567 36.0691 15.8776C36.0691 15.9984 36.0366 16.1171 35.975 16.2211L34.7448 18.2863V28.7022C34.7448 29.4166 34.461 30.1018 33.9558 30.6069C33.4506 31.1121 32.7654 31.3959 32.051 31.3959" fill="#AECC53"/>
<path d="M28.0416 17.0561C27.621 17.0098 27.1965 17.0971 26.8283 17.3056C26.4601 17.514 26.1668 17.8331 25.99 18.2175C25.8132 18.6019 25.7619 19.0322 25.8432 19.4474C25.9246 19.8626 26.1345 20.2418 26.4433 20.531C25.8111 22.053 24.7794 23.376 23.4573 24.3599C22.1351 25.3438 20.5716 25.9521 18.9322 26.1206V17.523C20.065 17.3798 21.152 16.9869 22.1147 16.3728C23.0774 15.7587 23.8919 14.9386 24.4993 13.9717C24.8851 13.964 25.2606 13.8462 25.5817 13.6322C25.9028 13.4182 26.1561 13.1169 26.3117 12.7637C26.4673 12.4106 26.5187 12.0204 26.46 11.639C26.4012 11.2576 26.2347 10.9009 25.9801 10.611C25.7254 10.3211 25.3932 10.11 25.0226 10.0026C24.652 9.89511 24.2583 9.8958 23.8881 10.0046C23.5179 10.1133 23.1864 10.3256 22.9328 10.6164C22.6792 10.9072 22.5139 11.2645 22.4565 11.6461C22.414 11.9185 22.4284 12.1967 22.4988 12.4633C22.5691 12.7298 22.6938 12.979 22.8651 13.195C22.4155 13.8604 21.8348 14.427 21.1585 14.8601C20.4822 15.2932 19.7246 15.5836 18.9322 15.7137V7.30912C19.3416 7.10652 19.6706 6.7714 19.8655 6.35822C20.0604 5.94503 20.1099 5.47807 20.0059 5.03321C19.9019 4.58836 19.6504 4.19176 19.2925 3.90787C18.9346 3.62397 18.4911 3.46948 18.0342 3.46948C17.5774 3.46948 17.134 3.62397 16.776 3.90787C16.4181 4.19176 16.1667 4.58836 16.0626 5.03321C15.9586 5.47807 16.0081 5.94503 16.203 6.35822C16.3979 6.7714 16.7268 7.10652 17.1363 7.30912V15.7137C16.3421 15.5853 15.5826 15.2956 14.9047 14.8624C14.2267 14.4292 13.6446 13.8618 13.1944 13.195C13.3657 12.979 13.4904 12.7298 13.5607 12.4633C13.6311 12.1967 13.6455 11.9185 13.603 11.6461C13.5456 11.2647 13.3805 10.9076 13.1271 10.6169C12.8736 10.3262 12.5424 10.1138 12.1724 10.005C11.8024 9.89606 11.409 9.89509 11.0385 10.0022C10.668 10.1093 10.3358 10.32 10.0809 10.6095C9.82607 10.899 9.6592 11.2552 9.59995 11.6363C9.5407 12.0175 9.59157 12.4076 9.7465 12.7608C9.90143 13.114 10.154 13.4156 10.4745 13.6301C10.795 13.8446 11.1702 13.9631 11.5558 13.9717C12.1646 14.9402 12.9811 15.7613 13.9463 16.3755C14.9115 16.9897 16.0011 17.3817 17.1363 17.523V26.1206C15.4945 25.9545 13.9282 25.3472 12.6035 24.3631C11.2788 23.3791 10.245 22.0549 9.61173 20.531C9.94361 20.2175 10.1598 19.801 10.2252 19.3492C10.2906 18.8973 10.2014 18.4366 9.97202 18.0419C9.74265 17.6471 9.38657 17.3415 8.96164 17.1745C8.5367 17.0076 8.06782 16.9892 7.63109 17.1222C7.19436 17.2553 6.81547 17.5321 6.55582 17.9076C6.29617 18.2831 6.17102 18.7354 6.20074 19.1909C6.23046 19.6465 6.41328 20.0787 6.71952 20.4173C7.02575 20.7559 7.43742 20.9811 7.88774 21.0563C8.63794 22.9481 9.90091 24.5932 11.5347 25.8067C13.1685 27.0202 15.1084 27.7539 17.1363 27.9254V36.6667H18.9322V27.9254C20.9585 27.7523 22.8965 27.0178 24.5286 25.8044C26.1606 24.5911 27.4223 22.9468 28.1718 21.0563C28.6525 20.9736 29.0871 20.7199 29.3953 20.3418C29.7035 19.9638 29.8645 19.487 29.8486 18.9995C29.8328 18.512 29.6411 18.0467 29.309 17.6895C28.9768 17.3323 28.5267 17.1073 28.0416 17.0561Z" fill="#006D69"/>
<path d="M52.9142 2.46928H51.1183C50.9386 2.1449 50.6709 1.87793 50.3459 1.6992C50.021 1.52046 49.6522 1.43723 49.282 1.45912C47.8768 1.45912 46.9026 2.4603 46.9026 4.01819C46.9026 5.57609 47.8903 6.59972 49.3494 6.59972C49.8763 6.63036 50.3957 6.46326 50.8059 6.13111C51.2161 5.79895 51.4876 5.32566 51.5673 4.80387H48.8735V3.60066H53.1117V4.94754C52.9314 5.82323 52.45 6.60811 51.7513 7.16582C51.0525 7.72354 50.1804 8.01886 49.2865 8.00049C48.2256 8.00049 47.2081 7.57903 46.4579 6.82884C45.7077 6.07865 45.2863 5.06117 45.2863 4.00024C45.2863 2.93931 45.7077 1.92184 46.4579 1.17164C47.2081 0.421454 48.2256 0 49.2865 0C51.033 0 52.4292 0.897922 52.9321 2.45582" fill="#006D69"/>
<path d="M55.8457 7.94666H54.2743V1.72856H55.8457V2.69383C56.0408 2.36486 56.32 2.09374 56.6545 1.90832C56.9891 1.72291 57.3669 1.62987 57.7493 1.63877V3.29543H57.3362C56.4069 3.29543 55.8457 3.6546 55.8457 4.85333V7.94666Z" fill="#006D69"/>
<path d="M61.5205 8.04986C59.7247 8.04986 58.4048 6.79277 58.4048 4.83979C58.4048 2.88681 59.6843 1.62973 61.5205 1.62973C61.9296 1.6083 62.3387 1.67325 62.721 1.82035C63.1034 1.96745 63.4505 2.19339 63.7397 2.48349C64.029 2.77358 64.2539 3.12132 64.3999 3.50409C64.5459 3.88686 64.6096 4.29608 64.587 4.70511C64.5877 4.908 64.5727 5.11062 64.5421 5.3112H59.9986C60.0003 5.50394 60.0404 5.69442 60.1166 5.87148C60.1928 6.04854 60.3035 6.20864 60.4423 6.3424C60.5811 6.47617 60.7451 6.58092 60.9249 6.65054C61.1046 6.72016 61.2965 6.75326 61.4891 6.74788C61.7486 6.76392 62.0068 6.70027 62.2291 6.56546C62.4513 6.43065 62.6271 6.23113 62.7328 5.99363H64.4299C64.2441 6.61199 63.8568 7.15039 63.3295 7.52305C62.8023 7.8957 62.1654 8.08116 61.5205 8.04986ZM60.0076 4.25615H62.9573C62.9529 4.06898 62.9105 3.88464 62.8328 3.71432C62.7551 3.544 62.6435 3.39124 62.505 3.26531C62.3665 3.13937 62.2038 3.04288 62.0269 2.98168C61.85 2.92047 61.6624 2.89584 61.4757 2.90927C61.1049 2.90265 60.7458 3.03874 60.4726 3.28942C60.1993 3.5401 60.0328 3.8862 60.0076 4.25615Z" fill="#006D69"/>
<path d="M68.4481 8.04987C66.6523 8.04987 65.3054 6.79279 65.3054 4.83981C65.3054 2.88683 66.5849 1.62974 68.4481 1.62974C68.8568 1.60897 69.2654 1.6744 69.6472 1.82179C70.029 1.96917 70.3755 2.19522 70.6643 2.48524C70.953 2.77526 71.1775 3.12278 71.3232 3.50523C71.4689 3.88767 71.5326 4.29649 71.51 4.70512C71.5129 4.90808 71.4979 5.11089 71.4651 5.31121H66.9216C66.9246 5.5036 66.9655 5.69352 67.0421 5.87003C67.1187 6.04653 67.2295 6.20615 67.368 6.33968C67.5066 6.47321 67.6701 6.57802 67.8493 6.64808C68.0285 6.71813 68.2199 6.75206 68.4122 6.74789C68.6722 6.76359 68.9308 6.69986 69.1537 6.56514C69.3766 6.43043 69.5533 6.23111 69.6603 5.99364H71.3619C71.1763 6.61122 70.7897 7.14906 70.2634 7.52164C69.737 7.89422 69.1012 8.08014 68.4571 8.04987H68.4481ZM66.9441 4.25616H69.8938C69.8894 4.06899 69.847 3.88465 69.7693 3.71433C69.6916 3.54402 69.58 3.39126 69.4415 3.26532C69.303 3.13938 69.1403 3.04289 68.9634 2.98169C68.7865 2.92049 68.599 2.89585 68.4122 2.90928C68.0415 2.90266 67.6823 3.03875 67.4091 3.28943C67.1358 3.54011 66.9694 3.88621 66.9441 4.25616Z" fill="#006D69"/>
<path d="M77.0097 4.51202C77.0097 3.51532 76.462 2.97658 75.6314 2.97658C74.8008 2.97658 74.2307 3.51532 74.2307 4.51202V7.94656H72.6593V1.72847H74.2307V2.50516C74.4548 2.22648 74.7405 2.00358 75.0654 1.85401C75.3903 1.70444 75.7454 1.63227 76.1029 1.64316C77.5485 1.64316 78.5811 2.58148 78.5811 4.301V7.94656H77.0097V4.51202Z" fill="#006D69"/>
<path d="M48.357 22.3941C46.7318 22.3941 45.4747 21.5411 45.4523 20.0595H47.1179C47.1214 20.2082 47.1557 20.3545 47.2187 20.4891C47.2817 20.6238 47.372 20.7439 47.4838 20.8418C47.5957 20.9398 47.7267 21.0134 47.8685 21.058C48.0103 21.1027 48.1599 21.1173 48.3076 21.1011C49.0484 21.1011 49.4839 20.7105 49.4839 20.1493C49.4839 18.4523 45.4433 19.4759 45.4433 16.634C45.4433 15.2197 46.5881 14.3892 48.2044 14.3892C49.8206 14.3892 50.8981 15.2108 51.0059 16.634H49.2819C49.2557 16.3618 49.1231 16.111 48.9128 15.9361C48.7026 15.7612 48.4319 15.6764 48.1594 15.7001C47.5399 15.6777 47.082 15.983 47.082 16.6205C47.082 18.1919 51.0957 17.3164 51.0957 20.0775C51.0957 21.3121 50.1079 22.4256 48.3256 22.4256" fill="#006D69"/>
<path d="M55.2489 22.4166C54.6154 22.4104 53.9979 22.2168 53.4742 21.8604C52.9504 21.5039 52.5438 21.0004 52.3057 20.4133C52.0675 19.8262 52.0084 19.1818 52.1358 18.5612C52.2632 17.9406 52.5714 17.3716 53.0216 16.9258C53.4717 16.48 54.0437 16.1773 54.6656 16.056C55.2874 15.9347 55.9312 16 56.5159 16.2439C57.1007 16.4878 57.6001 16.8992 57.9515 17.4264C58.3028 17.9536 58.4904 18.573 58.4904 19.2065C58.505 19.6347 58.431 20.0613 58.2729 20.4594C58.1147 20.8576 57.8759 21.2188 57.5715 21.5203C57.2671 21.8217 56.9036 22.057 56.5039 22.2112C56.1042 22.3655 55.6769 22.4354 55.2489 22.4166ZM55.2489 21.0697C56.0795 21.0697 56.8741 20.4636 56.8741 19.2289C56.8741 17.9943 56.1019 17.3882 55.2714 17.3882C54.4408 17.3882 53.691 17.9808 53.691 19.2289C53.691 20.4771 54.4093 21.0697 55.2489 21.0697Z" fill="#006D69"/>
<path d="M59.8192 17.3883H59.1098V16.0953H59.8192V15.781C59.8192 14.2546 60.6812 13.5362 62.4322 13.5946V14.919C61.6689 14.8966 61.413 15.1435 61.413 15.8394V16.0953H62.4995V17.3883H61.413V22.3269H59.8192V17.3883Z" fill="#006D69"/>
<path d="M63.7698 17.3883H63.029V16.0953H63.7698V14.5598H65.3502V16.0953H66.7419V17.3883H65.3502V20.3963C65.3502 20.8094 65.5163 20.9889 66.0101 20.9889H66.7419V22.3134H65.7542C64.5645 22.3134 63.7698 21.8105 63.7698 20.3828V17.3883Z" fill="#006D69"/>
<path d="M67.1823 16.0952H68.7761L69.8713 20.8317L71.0612 16.0952H72.7224L73.8896 20.8228L74.9896 16.0952H76.4935L74.6753 22.3133H72.9829L71.8469 17.9719L70.7153 22.3133H69.0093L67.1823 16.0952Z" fill="#006D69"/>
<path d="M79.7843 15.9965C80.1806 15.9832 80.5743 16.0662 80.9316 16.2382C81.2889 16.4102 81.5992 16.6661 81.836 16.9842V16.0863H83.4208V22.3044H81.836V21.4065C81.6006 21.7308 81.2892 21.9926 80.9292 22.1687C80.5692 22.3448 80.1714 22.4299 79.7708 22.4166C78.1994 22.4166 76.9468 21.1236 76.9468 19.1841C76.9468 17.2446 78.1994 15.9965 79.7843 15.9965ZM80.1883 17.3748C79.9601 17.3765 79.7346 17.4253 79.5261 17.5182C79.3176 17.6111 79.1305 17.7461 78.9767 17.9147C78.8228 18.0834 78.7054 18.282 78.6319 18.4981C78.5585 18.7142 78.5304 18.9432 78.5496 19.1706C78.5496 20.3469 79.3443 21.0204 80.1883 21.0204C80.4194 21.0176 80.6475 20.967 80.8581 20.8719C81.0687 20.7767 81.2573 20.6389 81.412 20.4673C81.5668 20.2957 81.6844 20.0938 81.7574 19.8745C81.8303 19.6553 81.8571 19.4232 81.836 19.1931C81.836 18.0123 81.0504 17.3613 80.1883 17.3613" fill="#006D69"/>
<path d="M86.5279 22.3135H84.961V16.0954H86.5279V17.0607C86.7244 16.732 87.0045 16.4612 87.3396 16.2759C87.6748 16.0906 88.0531 15.9973 88.436 16.0056V17.6623H88.0229C87.089 17.6623 86.5279 18.0215 86.5279 19.2202V22.3135Z" fill="#006D69"/>
<path d="M92.2074 22.4166C90.4115 22.4166 89.0916 21.1595 89.0916 19.2065C89.0916 17.2535 90.3666 15.9964 92.2074 15.9964C92.6165 15.975 93.0255 16.04 93.4078 16.187C93.7902 16.3341 94.1372 16.5601 94.4265 16.8502C94.7157 17.1403 94.9407 17.488 95.0866 17.8708C95.2326 18.2536 95.2964 18.6628 95.2738 19.0718C95.2744 19.2747 95.2594 19.4773 95.2289 19.6779H90.6674C90.6703 19.8707 90.7114 20.061 90.7883 20.2378C90.8652 20.4146 90.9763 20.5744 91.1153 20.708C91.2543 20.8416 91.4185 20.9463 91.5982 21.0161C91.7779 21.0859 91.9697 21.1193 92.1624 21.1146C92.4219 21.1306 92.6801 21.067 92.9023 20.9322C93.1246 20.7973 93.3004 20.5978 93.4061 20.3603H95.1031C94.9174 20.9787 94.5301 21.5171 94.0028 21.8897C93.4756 22.2624 92.8388 22.4479 92.1939 22.4166H92.2074ZM90.6809 18.6228H93.6305C93.6262 18.4357 93.5838 18.2513 93.5061 18.081C93.4283 17.9107 93.3168 17.7579 93.1783 17.632C93.0398 17.5061 92.8771 17.4096 92.7002 17.3484C92.5232 17.2872 92.3357 17.2625 92.149 17.276C91.7782 17.2693 91.4191 17.4054 91.1459 17.6561C90.8726 17.9068 90.7062 18.2529 90.6809 18.6228Z" fill="#006D69"/>
<path d="M45.6546 28.8503H50.4897V30.1164H47.2259V32.1233H49.7263V33.3714H47.2259V36.6802H45.6546V28.8503Z" fill="#006D69"/>
<path d="M54.3646 36.7833C53.731 36.7771 53.1135 36.5835 52.5898 36.2271C52.066 35.8706 51.6595 35.3671 51.4213 34.78C51.1832 34.1929 51.1241 33.5485 51.2515 32.9279C51.3789 32.3073 51.687 31.7383 52.1372 31.2925C52.5873 30.8467 53.1594 30.544 53.7812 30.4227C54.403 30.3014 55.0469 30.3667 55.6316 30.6106C56.2163 30.8545 56.7158 31.2659 57.0671 31.7931C57.4185 32.3203 57.606 32.9397 57.606 33.5732C57.6207 34.0014 57.5467 34.428 57.3885 34.8261C57.2304 35.2243 56.9916 35.5855 56.6872 35.887C56.3828 36.1884 56.0193 36.4237 55.6196 36.5779C55.2199 36.7322 54.7926 36.8021 54.3646 36.7833ZM54.3646 35.4364C55.1951 35.4364 55.9898 34.8303 55.9898 33.5956C55.9898 32.361 55.2131 31.7549 54.387 31.7549C53.5609 31.7549 52.8022 32.3475 52.8022 33.5956C52.8022 34.8438 53.5205 35.4364 54.3646 35.4364Z" fill="#006D69"/>
<path d="M64.6274 36.6803H63.0426V35.8946C62.8231 36.1731 62.5416 36.3965 62.2204 36.547C61.8993 36.6974 61.5474 36.7707 61.1929 36.7611C59.7472 36.7611 58.7012 35.8183 58.7012 34.1122V30.4622H60.2725V33.8877C60.2725 34.8844 60.8247 35.4232 61.6508 35.4232C62.4769 35.4232 63.0426 34.8844 63.0426 33.8877V30.4622H64.6274V36.6803Z" fill="#006D69"/>
<path d="M70.5359 33.2455C70.5359 32.2488 69.9837 31.71 69.1576 31.71C68.3315 31.71 67.7523 32.2488 67.7523 33.2455V36.68H66.181V30.4619H67.7523V31.2386C67.9772 30.9596 68.2637 30.7365 68.5893 30.5869C68.9149 30.4374 69.2708 30.3654 69.629 30.3766C71.0747 30.3766 72.1073 31.315 72.1073 33.0345V36.68H70.5359V33.2455Z" fill="#006D69"/>
<path d="M76.049 30.3633C76.4385 30.3585 76.824 30.443 77.1758 30.6104C77.5275 30.7777 77.8363 31.0234 78.0784 31.3286V28.3789H79.6722V36.6802H78.0963V35.7598C77.8718 36.0909 77.5661 36.3588 77.2084 36.538C76.8508 36.7173 76.4531 36.8017 76.0535 36.7835C74.4732 36.7835 73.2161 35.4905 73.2161 33.5509C73.2161 31.6114 74.4732 30.3633 76.067 30.3633H76.049ZM76.4576 31.7416C76.2295 31.7439 76.0044 31.7932 75.7962 31.8864C75.588 31.9795 75.4013 32.1145 75.2475 32.283C75.0938 32.4515 74.9764 32.6498 74.9026 32.8656C74.8289 33.0814 74.8004 33.3101 74.8189 33.5375C74.7986 33.7678 74.8256 34 74.898 34.2196C74.9705 34.4392 75.0869 34.6418 75.2403 34.8149C75.3937 34.988 75.5807 35.128 75.79 35.2264C75.9993 35.3248 76.2265 35.3795 76.4576 35.3872C77.3241 35.3872 78.1053 34.7362 78.1053 33.5599C78.1053 32.3836 77.3241 31.7282 76.4576 31.7282" fill="#006D69"/>
<path d="M83.6455 30.3632C84.0418 30.3499 84.4355 30.4329 84.7928 30.6049C85.1501 30.7769 85.4605 31.0328 85.6973 31.3509V30.453H87.2821V36.6711H85.6973V35.7732C85.4619 36.0975 85.1505 36.3593 84.7904 36.5354C84.4304 36.7115 84.0326 36.7966 83.632 36.7833C82.0652 36.7833 80.8081 35.4903 80.8081 33.5508C80.8081 31.6113 82.0652 30.3632 83.6455 30.3632ZM84.0496 31.7415C83.8213 31.7432 83.5958 31.792 83.3873 31.8849C83.1788 31.9778 82.9918 32.1128 82.8379 32.2814C82.684 32.4501 82.5667 32.6487 82.4932 32.8648C82.4197 33.0809 82.3917 33.3099 82.4109 33.5373C82.4109 34.7136 83.2055 35.3871 84.0496 35.3871C84.2807 35.3843 84.5087 35.3337 84.7193 35.2386C84.9299 35.1434 85.1186 35.0056 85.2733 34.834C85.4281 34.6624 85.5456 34.4605 85.6186 34.2412C85.6916 34.022 85.7184 33.7899 85.6973 33.5598C85.6973 32.379 84.9116 31.728 84.0496 31.728" fill="#006D69"/>
<path d="M89.069 31.755H88.3282V30.462H89.069V28.9265H90.6673V30.462H92.0591V31.755H90.6673V34.763C90.6673 35.176 90.8334 35.3556 91.3272 35.3556H92.0591V36.6801H91.0714C89.8816 36.6801 89.0869 36.1772 89.0869 34.7495L89.069 31.755Z" fill="#006D69"/>
<path d="M93.0065 28.8056C92.993 28.6123 93.0379 28.4195 93.1355 28.2522C93.233 28.0849 93.3786 27.9507 93.5533 27.8672C93.7281 27.7837 93.924 27.7548 94.1154 27.7841C94.3069 27.8133 94.485 27.8995 94.6269 28.0315C94.7687 28.1634 94.8676 28.3349 94.9106 28.5238C94.9536 28.7126 94.9388 28.91 94.8682 29.0903C94.7975 29.2707 94.6743 29.4256 94.5144 29.5349C94.3545 29.6443 94.1655 29.703 93.9718 29.7035C93.8491 29.7095 93.7264 29.6909 93.6109 29.6488C93.4955 29.6066 93.3897 29.5418 93.2998 29.4581C93.2098 29.3744 93.1375 29.2736 93.0872 29.1615C93.0368 29.0494 93.0094 28.9284 93.0065 28.8056ZM93.1771 30.4622H94.7485V36.6803H93.1771V30.4622Z" fill="#006D69"/>
<path d="M99.054 36.7835C98.4207 36.7764 97.8037 36.5821 97.2805 36.2251C96.7574 35.8681 96.3515 35.3643 96.114 34.7772C95.8766 34.19 95.8181 33.5457 95.946 32.9254C96.0739 32.3051 96.3824 31.7365 96.8328 31.2912C97.2831 30.8458 97.8551 30.5436 98.4768 30.4226C99.0985 30.3017 99.7421 30.3673 100.327 30.6113C100.911 30.8553 101.41 31.2667 101.761 31.7938C102.113 32.3209 102.3 32.94 102.3 33.5734C102.314 34.0018 102.239 34.4285 102.081 34.8267C101.922 35.2249 101.683 35.586 101.378 35.8874C101.073 36.1888 100.71 36.424 100.31 36.5782C99.9097 36.7324 99.4823 36.8023 99.054 36.7835ZM99.054 35.4366C99.8846 35.4366 100.684 34.8305 100.684 33.5958C100.684 32.3612 99.907 31.7551 99.0765 31.7551C98.2459 31.7551 97.4961 32.3477 97.4961 33.5958C97.4961 34.844 98.2145 35.4366 99.054 35.4366Z" fill="#006D69"/>
<path d="M107.809 33.2455C107.809 32.2488 107.261 31.71 106.43 31.71C105.6 31.71 105.025 32.2488 105.025 33.2455V36.68H103.458V30.4619H105.034V31.2386C105.259 30.9596 105.545 30.7365 105.871 30.5869C106.197 30.4374 106.553 30.3654 106.911 30.3766C108.356 30.3766 109.389 31.315 109.389 33.0345V36.68H107.818L107.809 33.2455Z" fill="#006D69"/>
</svg>
