<svg width="178" height="185" viewBox="0 0 178 185" fill="none" xmlns="http://www.w3.org/2000/svg">
<path d="M60.9329 256.622C57.5189 245.417 56.3444 233.535 57.1567 223.04C60.9382 174.194 78.915 126.538 114.98 92.1526C154.136 54.822 219.834 35.3881 273.352 40.0141C281.151 40.6884 289.046 42.0406 297.024 44.1309C310.063 47.5464 324.941 52.6283 334.419 62.8509C369.659 100.856 270.73 133.709 251.291 143.181C217.905 159.45 189.532 195.279 173.596 228.067C167.835 239.92 163.277 252.371 156.725 263.807C144.052 285.924 120.92 306.308 93.9608 296.175C76.9269 289.772 66.2325 274.014 60.9329 256.622Z" stroke="url(#paint0_linear_8197_983)" stroke-width="1.125" stroke-miterlimit="10" stroke-linecap="round" stroke-linejoin="round"/>
<path d="M95.9871 218.608C93.6396 210.903 92.8319 202.732 93.3907 195.515C95.9909 161.926 108.352 129.156 133.153 105.511C160.077 79.8404 205.255 66.4769 242.056 69.6584C247.419 70.1219 252.847 71.051 258.334 72.4889C267.3 74.8379 277.531 78.3322 284.048 85.3611C308.281 111.496 240.253 134.087 226.886 140.6C203.928 151.788 184.418 176.425 173.459 198.971C169.498 207.122 166.363 215.685 161.858 223.548C153.143 238.756 137.237 252.774 118.699 245.805C106.985 241.403 99.6314 230.567 95.9871 218.607V218.608Z" stroke="url(#paint1_linear_8197_983)" stroke-width="1.125" stroke-miterlimit="10" stroke-linecap="round" stroke-linejoin="round"/>
<path d="M60.9329 256.622C57.5189 245.417 56.3444 233.535 57.1567 223.04C60.9382 174.194 78.915 126.538 114.98 92.1526C154.136 54.822 219.834 35.3881 273.352 40.0141C281.151 40.6884 289.046 42.0406 297.024 44.1309C310.063 47.5464 324.941 52.6283 334.419 62.8509C369.659 100.856 270.73 133.709 251.291 143.181C217.905 159.45 189.532 195.279 173.596 228.067C167.835 239.92 163.277 252.371 156.725 263.807C144.052 285.924 120.92 306.308 93.9608 296.175C76.9269 289.772 66.2325 274.014 60.9329 256.622Z" stroke="url(#paint2_linear_8197_983)" stroke-width="1.125" stroke-miterlimit="10" stroke-linecap="round" stroke-linejoin="round"/>
<path d="M95.9871 218.608C93.6396 210.903 92.8319 202.732 93.3907 195.515C95.9909 161.926 108.352 129.156 133.153 105.511C160.077 79.8404 205.255 66.4769 242.056 69.6584C247.419 70.1219 252.847 71.051 258.334 72.4889C267.3 74.8379 277.531 78.3322 284.048 85.3611C308.281 111.496 240.253 134.087 226.886 140.6C203.928 151.788 184.418 176.425 173.459 198.971C169.498 207.122 166.363 215.685 161.858 223.548C153.143 238.756 137.237 252.774 118.699 245.805C106.985 241.403 99.6314 230.567 95.9871 218.607V218.608Z" stroke="url(#paint3_linear_8197_983)" stroke-width="1.125" stroke-miterlimit="10" stroke-linecap="round" stroke-linejoin="round"/>
<path d="M136.237 335.078C166.678 304.059 185.689 269.112 207.534 232.262C224.813 203.114 254.305 182.328 285.107 169.504C312.262 158.199 341.191 149.832 364.849 132.355C388.008 115.246 403.243 87.8233 399.595 58.4735C396.838 36.2952 373.808 22.4721 354.344 14.3953C311.259 -3.48177 258.198 -2.53443 213.523 8.73051C160.672 22.0565 112.923 52.0139 73.6137 89.771C19.307 141.934 -27.2943 238.929 20.3389 308.938C40.0323 337.884 71.9013 370.912 110.804 354.388C120.667 350.199 128.731 342.726 136.237 335.078L136.237 335.078Z" stroke="url(#paint4_linear_8197_983)" stroke-width="1.125" stroke-miterlimit="10" stroke-linecap="round" stroke-linejoin="round"/>
<defs>
<linearGradient id="paint0_linear_8197_983" x1="209.506" y1="34.042" x2="186.455" y2="306.176" gradientUnits="userSpaceOnUse">
<stop stop-color="#ACCA53"/>
<stop offset="1" stop-color="#003834"/>
</linearGradient>
<linearGradient id="paint1_linear_8197_983" x1="198.166" y1="65.3763" x2="182.285" y2="252.859" gradientUnits="userSpaceOnUse">
<stop stop-color="#ACCA53"/>
<stop offset="1" stop-color="#003834"/>
</linearGradient>
<linearGradient id="paint2_linear_8197_983" x1="209.506" y1="34.042" x2="186.455" y2="306.176" gradientUnits="userSpaceOnUse">
<stop stop-color="#ACCA53"/>
<stop offset="1" stop-color="#003834"/>
</linearGradient>
<linearGradient id="paint3_linear_8197_983" x1="198.166" y1="65.3763" x2="182.285" y2="252.859" gradientUnits="userSpaceOnUse">
<stop stop-color="#ACCA53"/>
<stop offset="1" stop-color="#003834"/>
</linearGradient>
<linearGradient id="paint4_linear_8197_983" x1="213.871" y1="-6.34401" x2="182.216" y2="367.369" gradientUnits="userSpaceOnUse">
<stop stop-color="#ACCA53"/>
<stop offset="1" stop-color="#003834"/>
</linearGradient>
</defs>
</svg>
