<svg width="347" height="419" viewBox="0 0 347 419" fill="none" xmlns="http://www.w3.org/2000/svg">
<g opacity="0.5">
<path d="M-243.364 434.813C-228.064 396.613 -205.844 360.933 -187.844 339.283C-146.584 289.663 -63.6542 240.853 2.95581 258.793C88.0158 281.703 110.166 367.643 91.1459 446.333C76.8459 505.473 30.4059 544.203 -25.1241 569.103C-74.0741 591.043 -130.224 605.853 -183.994 597.753C-210.394 593.773 -238.474 583.323 -251.334 559.923C-269.544 526.763 -261.104 479.093 -243.374 434.813H-243.364Z" stroke="#ADCB53" stroke-width="2" stroke-linecap="round" stroke-linejoin="round"/>
<path d="M-311.314 435.493C-289.674 381.473 -258.254 331.023 -232.794 300.413C-174.454 230.243 -57.164 161.223 37.026 186.593C157.306 218.993 188.636 340.523 161.736 451.803C141.516 535.433 75.836 590.213 -2.68401 625.413C-71.904 656.443 -151.304 677.383 -227.344 665.933C-264.674 660.313 -304.394 645.523 -322.564 612.433C-348.324 565.543 -336.384 498.133 -311.304 435.503L-311.314 435.493Z" stroke="#ADCB53" stroke-width="2" stroke-linecap="round" stroke-linejoin="round"/>
<path d="M-346.464 434.203C-321.624 372.183 -285.544 314.263 -256.314 279.113C-189.334 198.553 -54.6741 119.303 53.4659 148.433C191.566 185.623 227.536 325.163 196.646 452.923C173.436 548.933 98.0259 611.833 7.87592 652.243C-71.5941 687.863 -162.754 711.913 -250.064 698.763C-292.924 692.303 -338.524 675.323 -359.394 637.343C-388.964 583.513 -375.264 506.103 -346.464 434.213V434.203Z" stroke="#ADCB53" stroke-width="2" stroke-linecap="round" stroke-linejoin="round"/>
<path d="M47.8859 689.573C-33.3041 735.683 -140.484 769.163 -234.494 758.493C-272.854 754.143 -329.984 734.363 -354.904 700.313C-384.714 659.583 -398.774 611.823 -397.814 569.183C-393.814 391.183 -303.694 199.503 -160.714 127.763C-61.5942 78.0329 61.6159 73.1229 150.226 147.453C217.066 203.523 260.306 288.583 260.156 375.783C259.936 508.163 162.996 624.193 47.8759 689.573H47.8859Z" stroke="#ADCB53" stroke-width="2" stroke-linecap="round" stroke-linejoin="round"/>
<path d="M61.2659 716.503C-28.8341 767.673 -147.784 804.833 -252.104 792.993C-294.674 788.163 -354.684 769.673 -376.854 728.423C-484.554 528.083 -369.524 193.013 -170.224 93.023C-60.2242 37.833 76.5059 32.3829 174.846 114.873C249.026 177.103 297.006 271.503 296.846 368.273C296.596 515.183 189.026 643.953 61.2659 716.513V716.503Z" stroke="#ADCB53" stroke-width="2" stroke-linecap="round" stroke-linejoin="round"/>
<path d="M78.906 752.013C-22.944 809.853 -157.404 851.853 -275.334 838.473C-323.454 833.013 -391.284 812.103 -416.344 765.483C-538.084 539.013 -408.054 160.263 -182.764 47.223C-58.4239 -15.167 96.136 -21.327 207.306 71.923C291.156 142.263 345.396 248.973 345.216 358.363C344.936 524.433 223.336 669.993 78.916 752.013H78.906Z" stroke="#ADCB53" stroke-width="2" stroke-linecap="round" stroke-linejoin="round"/>
</g>
</svg>
