<svg width="313" height="70" viewBox="0 0 313 70" fill="none" xmlns="http://www.w3.org/2000/svg">
<path d="M312.059 0H0V69.648H312.059V0Z" fill="white"/>
<path d="M144.636 3.41657C143.807 4.32773 142.341 6.27785 141.379 7.75007C139.324 10.897 137.299 13.5423 129.337 23.4738C126.092 27.5224 122.047 32.6635 120.349 34.8986C118.652 37.1344 116.25 39.7114 115.014 40.6256C113.533 41.7199 112.766 42.9259 112.766 44.1574C112.766 45.1858 111.775 47.4664 110.564 49.2259C108.811 51.7752 107.576 52.6811 104.492 53.6801C102.362 54.3701 98.5299 55.8875 95.9739 57.0513C89.7175 59.9013 87.7396 60.3633 87.7396 58.9752C87.7396 57.6687 88.5264 57.0019 92.8921 54.6133C109.508 45.5211 112.75 43.4556 111.835 42.5398C111.239 41.9443 100.547 47.3 92.9553 51.9973C84.6642 57.1273 81.3356 61.1977 84.4534 62.393C86.4177 63.1476 93.0514 61.3289 99.1241 58.3724C102.349 56.8019 105.238 55.7676 105.545 56.0743C105.852 56.381 105.672 57.461 105.147 58.4743C103.57 61.5125 103.267 63.5713 104.061 65.8476C105.189 69.0838 108.327 68.7478 116.615 64.5014C127.024 59.1689 142.225 48.6396 141.115 47.5305C140.619 47.0333 134.29 50.3624 130.063 53.3452C127.634 55.0597 122.065 58.3963 117.686 60.7619C106.995 66.5368 105.396 66.4672 106.95 60.2939C108.064 55.8711 110.873 52.9222 114.609 52.2547C117.917 51.6638 128.718 48.5077 132.64 46.9867C138.253 44.8087 140.679 44.4809 141.417 45.8001C142.036 46.9041 142.599 46.7834 147.051 44.5882C151.277 42.5047 153.186 42.0516 160.167 41.481C180.579 39.8115 192.914 37.0156 192.985 34.0425C193.011 32.9618 190.488 32.7171 189.394 33.6945C188.346 34.6291 183.133 35.7323 166.498 38.5425C163.866 38.9873 160.803 39.5437 159.69 39.7793C157.984 40.14 157.665 39.9623 157.665 38.6498C157.665 37.7926 158.049 37.092 158.518 37.092C158.987 37.092 161.849 35.8501 164.878 34.3336C170.683 31.4258 178.275 24.1726 178.275 21.5348C178.275 17.9131 171.694 17.9401 160.144 21.609C149.092 25.119 132.501 31.743 128.659 34.1797C126.772 35.3767 124.742 36.3555 124.149 36.3555C122.474 36.3555 122.875 34.5863 124.995 32.6198C130.092 27.8917 147.36 5.12263 147.36 3.12895C147.36 1.30879 146.471 1.40237 144.637 3.41693M174.92 22.8922C175.467 24.3173 174.484 25.2292 167.234 30.0172C154.036 38.7351 149.044 41.0767 139.632 42.9667C130.03 44.8949 120.829 47.4682 116.991 49.2997C114.943 50.2769 114.008 50.4052 113.396 49.7932C112.784 49.1812 113.278 47.9999 115.298 45.2482C118.248 41.2304 120.904 39.0472 123.807 38.2545C124.819 37.9785 128.794 36.4583 132.64 34.8765C145.634 29.5326 156.533 25.5008 162.45 23.85C165.688 22.9462 168.67 22.104 169.075 21.9787C171.394 21.2594 174.478 21.7417 174.92 22.8922Z" fill="black"/>
</svg>
